<svg width="16" height="16" viewBox="0 0 16 16" fill="none" xmlns="http://www.w3.org/2000/svg">
<path d="M4.66675 7.33333V8.66667H11.3334V7.33333C11.3334 6.09333 12.1867 5.06 13.3334 4.76V4C13.3334 2.9 12.4334 2 11.3334 2H4.66675C3.56675 2 2.66675 2.9 2.66675 4V4.76C3.81341 5.06 4.66675 6.09333 4.66675 7.33333Z" fill="#F7F7F7"/>
<path d="M14.0001 6C13.2667 6 12.6667 6.6 12.6667 7.33333V10H3.33341V7.33333C3.33341 6.6 2.73341 6 2.00008 6C1.26675 6 0.666748 6.6 0.666748 7.33333V10.6667C0.666748 11.7667 1.56675 12.6667 2.66675 12.6667V13.3333C2.66675 13.7 2.96675 14 3.33341 14C3.70008 14 4.00008 13.7 4.00008 13.3333V12.6667H12.0001V13.3333C12.0001 13.7 12.3001 14 12.6667 14C13.0334 14 13.3334 13.7 13.3334 13.3333V12.6667C14.4334 12.6667 15.3334 11.7667 15.3334 10.6667V7.33333C15.3334 6.6 14.7334 6 14.0001 6Z" fill="#F7F7F7"/>
</svg>
