<svg width="16" height="16" viewBox="0 0 16 16" fill="none" xmlns="http://www.w3.org/2000/svg">
<path d="M14.6667 3.81332L11.6 1.23999L10.74 2.25999L13.8067 4.83332L14.6667 3.81332ZM5.25337 2.25999L4.40004 1.23999L1.33337 3.80666L2.19337 4.82666L5.25337 2.25999ZM8.33337 5.33332H7.33337V9.33332L10.5 11.2333L11 10.4133L8.33337 8.83332V5.33332ZM8.00004 2.66666C4.68671 2.66666 2.00004 5.35332 2.00004 8.66666C2.00004 11.98 4.68004 14.6667 8.00004 14.6667C11.3134 14.6667 14 11.98 14 8.66666C14 5.35332 11.3134 2.66666 8.00004 2.66666ZM8.00004 13.3333C5.42004 13.3333 3.33337 11.2467 3.33337 8.66666C3.33337 6.08666 5.42004 3.99999 8.00004 3.99999C10.58 3.99999 12.6667 6.08666 12.6667 8.66666C12.6667 11.2467 10.58 13.3333 8.00004 13.3333Z" fill="#F7F7F7"/>
</svg>
